<svg viewBox="0 0 32 32" fill="inherit" xmlns="http://www.w3.org/2000/svg" role="img"><path opacity=".8" fill-rule="evenodd" clip-rule="evenodd" d="M9.334 9.334v13.333h2.667V9.334H9.334zm5.333 13.333V9.334h4v13.333h-4zm6.667 0V9.334h1.333v13.333h-1.333z"/><path opacity=".8" fill-rule="evenodd" clip-rule="evenodd" d="M2.666 8v16a5.333 5.333 0 005.333 5.334h16A5.333 5.333 0 0029.333 24V8a5.333 5.333 0 00-5.334-5.333H8A5.333 5.333 0 002.666 8zm5.333 18.667A2.667 2.667 0 015.333 24V8a2.667 2.667 0 012.666-2.667h16A2.667 2.667 0 0126.666 8v16a2.667 2.667 0 01-2.667 2.667H8z"/></svg>